<?xml version="1.0" encoding="UTF-8" standalone="no"?>
<!-- Created with Inkscape (http://www.inkscape.org/) -->

<svg
   xmlns:dc="http://purl.org/dc/elements/1.1/"
   xmlns:cc="http://creativecommons.org/ns#"
   xmlns:rdf="http://www.w3.org/1999/02/22-rdf-syntax-ns#"
   xmlns:svg="http://www.w3.org/2000/svg"
   xmlns="http://www.w3.org/2000/svg"
   xmlns:xlink="http://www.w3.org/1999/xlink"
   xmlns:sodipodi="http://sodipodi.sourceforge.net/DTD/sodipodi-0.dtd"
   xmlns:inkscape="http://www.inkscape.org/namespaces/inkscape"
   width="212.59842"
   height="283.46457"
   id="svg2"
   version="1.1"
   inkscape:version="0.47pre4 r22446"
   sodipodi:docname="model_components.svg">
  <defs
     id="defs4">
    <linearGradient
       id="linearGradient4928">
      <stop
         style="stop-color:#303030;stop-opacity:0.07738096;"
         offset="0"
         id="stop4930" />
      <stop
         style="stop-color:#2f3030;stop-opacity:0.98214287;"
         offset="1"
         id="stop4932" />
    </linearGradient>
    <marker
       inkscape:stockid="Arrow1Mend"
       orient="auto"
       refY="0"
       refX="0"
       id="Arrow1Mend"
       style="overflow:visible">
      <path
         id="path3827"
         d="M 0,0 5,-5 -12.5,0 5,5 0,0 z"
         style="fill-rule:evenodd;stroke:#000000;stroke-width:1pt;marker-start:none"
         transform="matrix(-0.4,0,0,-0.4,-4,0)" />
    </marker>
    <marker
       inkscape:stockid="Arrow1Lend"
       orient="auto"
       refY="0"
       refX="0"
       id="Arrow1Lend"
       style="overflow:visible">
      <path
         id="path3821"
         d="M 0,0 5,-5 -12.5,0 5,5 0,0 z"
         style="fill-rule:evenodd;stroke:#000000;stroke-width:1pt;marker-start:none"
         transform="matrix(-0.8,0,0,-0.8,-10,0)" />
    </marker>
    <linearGradient
       id="linearGradient3590">
      <stop
         style="stop-color:#ffffff;stop-opacity:1;"
         offset="0"
         id="stop3592" />
      <stop
         style="stop-color:#0060ff;stop-opacity:1;"
         offset="1"
         id="stop3594" />
    </linearGradient>
    <inkscape:perspective
       sodipodi:type="inkscape:persp3d"
       inkscape:vp_x="0 : 526.18109 : 1"
       inkscape:vp_y="0 : 1000 : 0"
       inkscape:vp_z="744.09448 : 526.18109 : 1"
       inkscape:persp3d-origin="372.04724 : 350.78739 : 1"
       id="perspective10" />
    <inkscape:perspective
       id="perspective3672"
       inkscape:persp3d-origin="0.5 : 0.33333333 : 1"
       inkscape:vp_z="1 : 0.5 : 1"
       inkscape:vp_y="0 : 1000 : 0"
       inkscape:vp_x="0 : 0.5 : 1"
       sodipodi:type="inkscape:persp3d" />
    <filter
       color-interpolation-filters="sRGB"
       inkscape:collect="always"
       id="filter3624-8">
      <feGaussianBlur
         inkscape:collect="always"
         stdDeviation="1.2965858"
         id="feGaussianBlur3626-5" />
    </filter>
    <filter
       inkscape:collect="always"
       id="filter3716"
       x="-0.12"
       width="1.24"
       y="-0.12"
       height="1.24"
       color-interpolation-filters="sRGB">
      <feGaussianBlur
         inkscape:collect="always"
         stdDeviation="2.5732241"
         id="feGaussianBlur3718" />
    </filter>
    <inkscape:perspective
       id="perspective4470"
       inkscape:persp3d-origin="0.5 : 0.33333333 : 1"
       inkscape:vp_z="1 : 0.5 : 1"
       inkscape:vp_y="0 : 1000 : 0"
       inkscape:vp_x="0 : 0.5 : 1"
       sodipodi:type="inkscape:persp3d" />
    <marker
       inkscape:stockid="Arrow1Mend"
       orient="auto"
       refY="0"
       refX="0"
       id="Arrow1Mend-0"
       style="overflow:visible">
      <path
         id="path3827-5"
         d="M 0,0 5,-5 -12.5,0 5,5 0,0 z"
         style="fill-rule:evenodd;stroke:#000000;stroke-width:1pt;marker-start:none"
         transform="matrix(-0.4,0,0,-0.4,-4,0)" />
    </marker>
    <inkscape:perspective
       id="perspective4529"
       inkscape:persp3d-origin="0.5 : 0.33333333 : 1"
       inkscape:vp_z="1 : 0.5 : 1"
       inkscape:vp_y="0 : 1000 : 0"
       inkscape:vp_x="0 : 0.5 : 1"
       sodipodi:type="inkscape:persp3d" />
    <inkscape:perspective
       id="perspective4630"
       inkscape:persp3d-origin="0.5 : 0.33333333 : 1"
       inkscape:vp_z="1 : 0.5 : 1"
       inkscape:vp_y="0 : 1000 : 0"
       inkscape:vp_x="0 : 0.5 : 1"
       sodipodi:type="inkscape:persp3d" />
    <marker
       inkscape:stockid="Arrow1Mend"
       orient="auto"
       refY="0"
       refX="0"
       id="Arrow1Mend-7"
       style="overflow:visible">
      <path
         id="path3827-4"
         d="M 0,0 5,-5 -12.5,0 5,5 0,0 z"
         style="fill-rule:evenodd;stroke:#000000;stroke-width:1pt;marker-start:none"
         transform="matrix(-0.4,0,0,-0.4,-4,0)" />
    </marker>
    <inkscape:perspective
       id="perspective4630-9"
       inkscape:persp3d-origin="0.5 : 0.33333333 : 1"
       inkscape:vp_z="1 : 0.5 : 1"
       inkscape:vp_y="0 : 1000 : 0"
       inkscape:vp_x="0 : 0.5 : 1"
       sodipodi:type="inkscape:persp3d" />
    <marker
       inkscape:stockid="Arrow1Mend"
       orient="auto"
       refY="0"
       refX="0"
       id="Arrow1Mend-09"
       style="overflow:visible">
      <path
         id="path3827-8"
         d="M 0,0 5,-5 -12.5,0 5,5 0,0 z"
         style="fill-rule:evenodd;stroke:#000000;stroke-width:1pt;marker-start:none"
         transform="matrix(-0.4,0,0,-0.4,-4,0)" />
    </marker>
    <inkscape:perspective
       id="perspective4905"
       inkscape:persp3d-origin="0.5 : 0.33333333 : 1"
       inkscape:vp_z="1 : 0.5 : 1"
       inkscape:vp_y="0 : 1000 : 0"
       inkscape:vp_x="0 : 0.5 : 1"
       sodipodi:type="inkscape:persp3d" />
    <marker
       inkscape:stockid="Arrow1Mend"
       orient="auto"
       refY="0"
       refX="0"
       id="Arrow1Mend-09-8"
       style="overflow:visible">
      <path
         id="path3827-8-9"
         d="M 0,0 5,-5 -12.5,0 5,5 0,0 z"
         style="fill-rule:evenodd;stroke:#000000;stroke-width:1pt;marker-start:none"
         transform="matrix(-0.4,0,0,-0.4,-4,0)" />
    </marker>
    <radialGradient
       inkscape:collect="always"
       xlink:href="#linearGradient4928"
       id="radialGradient4936"
       cx="45.462826"
       cy="77.061356"
       fx="45.462826"
       fy="77.061356"
       r="26.732241"
       gradientUnits="userSpaceOnUse"
       gradientTransform="matrix(0.78458188,0.81098585,-0.71870981,0.69531015,65.178269,-13.389896)" />
    <filter
       inkscape:collect="always"
       id="filter6418"
       x="-0.1123721"
       width="1.2247442"
       y="-0.1123721"
       height="1.2247442">
      <feGaussianBlur
         inkscape:collect="always"
         stdDeviation="2.4096548"
         id="feGaussianBlur6420" />
    </filter>
  </defs>
  <sodipodi:namedview
     id="base"
     pagecolor="#ffffff"
     bordercolor="#666666"
     borderopacity="1.0"
     inkscape:pageopacity="0.0"
     inkscape:pageshadow="2"
     inkscape:zoom="11.808407"
     inkscape:cx="125.63149"
     inkscape:cy="184.17143"
     inkscape:document-units="px"
     inkscape:current-layer="layer1"
     showgrid="false"
     units="cm"
     inkscape:window-width="1680"
     inkscape:window-height="1028"
     inkscape:window-x="-4"
     inkscape:window-y="-3"
     inkscape:window-maximized="1" />
  <metadata
     id="metadata7">
    <rdf:RDF>
      <cc:Work
         rdf:about="">
        <dc:format>image/svg+xml</dc:format>
        <dc:type
           rdf:resource="http://purl.org/dc/dcmitype/StillImage" />
        <dc:title />
      </cc:Work>
    </rdf:RDF>
  </metadata>
  <g
     inkscape:label="Layer 1"
     inkscape:groupmode="layer"
     id="layer1"
     transform="translate(0,-768.89631)">
    <g
       id="g6422">
      <path
         transform="matrix(0.49734521,0,0,0.49734521,129.8781,820.77179)"
         d="m 75.147253,80.384789 a 25.732241,25.732241 0 1 1 -51.464481,0 25.732241,25.732241 0 1 1 51.464481,0 z"
         sodipodi:ry="25.732241"
         sodipodi:rx="25.732241"
         sodipodi:cy="80.384789"
         sodipodi:cx="49.415012"
         id="path5854"
         style="fill:#ffffff;fill-opacity:1;fill-rule:evenodd;stroke:#000000;stroke-width:4.02135180999999964;stroke-linecap:butt;stroke-linejoin:miter;stroke-miterlimit:4;stroke-opacity:1;stroke-dasharray:none;filter:url(#filter6418)"
         sodipodi:type="arc" />
      <path
         sodipodi:type="arc"
         style="fill:#ffffff;fill-opacity:1;fill-rule:evenodd;stroke:#000000;stroke-width:4.02135181;stroke-linecap:butt;stroke-linejoin:miter;stroke-miterlimit:4;stroke-opacity:1;stroke-dasharray:none"
         id="path3803"
         sodipodi:cx="49.415012"
         sodipodi:cy="80.384789"
         sodipodi:rx="25.732241"
         sodipodi:ry="25.732241"
         d="m 75.147253,80.384789 a 25.732241,25.732241 0 1 1 -51.464481,0 25.732241,25.732241 0 1 1 51.464481,0 z"
         transform="matrix(0.49734521,0,0,0.49734521,129.62404,819.84025)" />
    </g>
    <g
       id="g3730"
       transform="translate(12.321616,46.649561)">
      <path
         sodipodi:type="arc"
         style="fill:#ffffff;fill-opacity:1;fill-rule:evenodd;stroke:#000000;stroke-width:5.41081619;stroke-linecap:butt;stroke-linejoin:miter;stroke-miterlimit:4;stroke-opacity:1;stroke-dasharray:none;filter:url(#filter3716)"
         id="path3702"
         sodipodi:cx="49.415012"
         sodipodi:cy="80.384789"
         sodipodi:rx="25.732241"
         sodipodi:ry="25.732241"
         d="m 75.147253,80.384789 c 0,14.211524 -11.520717,25.732241 -25.732241,25.732241 -14.211524,0 -25.73224,-11.520717 -25.73224,-25.732241 0,-14.211525 11.520716,-25.732241 25.73224,-25.732241 14.211524,0 25.732241,11.520716 25.732241,25.732241 z"
         transform="matrix(0.32310997,0,0,0.32310997,65.488939,776.50399)" />
      <path
         transform="matrix(0.32310997,0,0,0.32310997,65.034536,775.85052)"
         d="m 75.147253,80.384789 c 0,14.211524 -11.520717,25.732241 -25.732241,25.732241 -14.211524,0 -25.73224,-11.520717 -25.73224,-25.732241 0,-14.211525 11.520716,-25.732241 25.73224,-25.732241 14.211524,0 25.732241,11.520716 25.732241,25.732241 z"
         sodipodi:ry="25.732241"
         sodipodi:rx="25.732241"
         sodipodi:cy="80.384789"
         sodipodi:cx="49.415012"
         id="path2816"
         style="fill:#ffffff;fill-opacity:1;fill-rule:evenodd;stroke:#000000;stroke-width:5.41081619;stroke-linecap:butt;stroke-linejoin:miter;stroke-miterlimit:4;stroke-opacity:1;stroke-dasharray:none"
         sodipodi:type="arc" />
      <g
         transform="matrix(0.20167246,0.20167246,-0.20167246,0.20167246,226.39942,623.89904)"
         id="g3654">
        <rect
           style="fill:#000000;fill-opacity:1;stroke-width:2;stroke-miterlimit:4;stroke-dasharray:none"
           id="rect3650"
           width="5.0098171"
           height="36.890472"
           x="78.136269"
           y="783.159" />
        <rect
           y="-99.086418"
           x="799.09937"
           height="36.890472"
           width="5.0098171"
           id="rect3652"
           style="fill:#000000;fill-opacity:1;stroke-width:2;stroke-miterlimit:4;stroke-dasharray:none"
           transform="matrix(0,1,-1,0,0,0)" />
      </g>
    </g>
    <g
       id="g3754"
       transform="translate(122.15854,116.40991)">
      <path
         transform="matrix(0.32310997,0,0,0.32310997,18.123397,777.18715)"
         d="m 75.147253,80.384789 c 0,14.211524 -11.520717,25.732241 -25.732241,25.732241 -14.211524,0 -25.73224,-11.520717 -25.73224,-25.732241 0,-14.211525 11.520716,-25.732241 25.73224,-25.732241 14.211524,0 25.732241,11.520716 25.732241,25.732241 z"
         sodipodi:ry="25.732241"
         sodipodi:rx="25.732241"
         sodipodi:cy="80.384789"
         sodipodi:cx="49.415012"
         id="path3739"
         style="fill:#ffffff;fill-opacity:1;fill-rule:evenodd;stroke:#000000;stroke-width:5.41081619;stroke-linecap:butt;stroke-linejoin:miter;stroke-miterlimit:4;stroke-opacity:1;stroke-dasharray:none;filter:url(#filter3716)"
         sodipodi:type="arc" />
      <path
         sodipodi:type="arc"
         style="fill:#ffffff;fill-opacity:1;fill-rule:evenodd;stroke:#000000;stroke-width:5.41081619;stroke-linecap:butt;stroke-linejoin:miter;stroke-miterlimit:4;stroke-opacity:1;stroke-dasharray:none"
         id="path3741"
         sodipodi:cx="49.415012"
         sodipodi:cy="80.384789"
         sodipodi:rx="25.732241"
         sodipodi:ry="25.732241"
         d="m 75.147253,80.384789 c 0,14.211524 -11.520717,25.732241 -25.732241,25.732241 -14.211524,0 -25.73224,-11.520717 -25.73224,-25.732241 0,-14.211525 11.520716,-25.732241 25.73224,-25.732241 14.211524,0 25.732241,11.520716 25.732241,25.732241 z"
         transform="matrix(0.32310997,0,0,0.32310997,17.668994,776.53368)" />
      <g
         id="g3743"
         transform="matrix(0,0.28520793,-0.28520793,0,262.25937,779.5073)">
        <rect
           y="783.159"
           x="78.136269"
           height="36.890472"
           width="5.0098171"
           id="rect3745"
           style="fill:#000000;fill-opacity:1;stroke-width:2;stroke-miterlimit:4;stroke-dasharray:none" />
        <rect
           transform="matrix(0,1,-1,0,0,0)"
           style="fill:#000000;fill-opacity:1;stroke-width:2;stroke-miterlimit:4;stroke-dasharray:none"
           id="rect3747"
           width="5.0098171"
           height="36.890472"
           x="799.09937"
           y="-99.086418" />
      </g>
    </g>
    <g
       id="g3788"
       transform="translate(41.198563,205.51379)">
      <path
         sodipodi:type="arc"
         style="fill:#ffffff;fill-opacity:1;fill-rule:evenodd;stroke:#000000;stroke-width:5.41081619;stroke-linecap:butt;stroke-linejoin:miter;stroke-miterlimit:4;stroke-opacity:1;stroke-dasharray:none;filter:url(#filter3716)"
         id="path3763"
         sodipodi:cx="49.415012"
         sodipodi:cy="80.384789"
         sodipodi:rx="25.732241"
         sodipodi:ry="25.732241"
         d="m 75.147253,80.384789 c 0,14.211524 -11.520717,25.732241 -25.732241,25.732241 -14.211524,0 -25.73224,-11.520717 -25.73224,-25.732241 0,-14.211525 11.520716,-25.732241 25.73224,-25.732241 14.211524,0 25.732241,11.520716 25.732241,25.732241 z"
         transform="matrix(0.32310997,0,0,0.32310997,106.36324,776.54306)" />
      <path
         transform="matrix(0.32310997,0,0,0.32310997,105.90884,775.88959)"
         d="m 75.147253,80.384789 c 0,14.211524 -11.520717,25.732241 -25.732241,25.732241 -14.211524,0 -25.73224,-11.520717 -25.73224,-25.732241 0,-14.211525 11.520716,-25.732241 25.73224,-25.732241 14.211524,0 25.732241,11.520716 25.732241,25.732241 z"
         sodipodi:ry="25.732241"
         sodipodi:rx="25.732241"
         sodipodi:cy="80.384789"
         sodipodi:cx="49.415012"
         id="path3765"
         style="fill:#ffffff;fill-opacity:1;fill-rule:evenodd;stroke:#000000;stroke-width:5.41081619;stroke-linecap:butt;stroke-linejoin:miter;stroke-miterlimit:4;stroke-opacity:1;stroke-dasharray:none"
         sodipodi:type="arc" />
      <rect
         transform="matrix(0,1,-1,0,0,0)"
         y="-126.89089"
         x="800.68542"
         height="10.031152"
         width="2.3547139"
         id="rect3769"
         style="fill:#000000;fill-opacity:1;stroke-width:2;stroke-miterlimit:4;stroke-dasharray:none" />
    </g>
    <path
       style="color:#000000;fill:none;stroke:#000000;stroke-width:1.5;stroke-linecap:butt;stroke-linejoin:miter;stroke-miterlimit:4;stroke-opacity:1;stroke-dasharray:none;stroke-dashoffset:0;marker:none;marker-end:url(#Arrow1Mend);visibility:visible;display:inline;overflow:visible;enable-background:accumulate"
       d="m 82.549455,1421.9055 24.049175,3.8097"
       id="path4620"
       inkscape:connector-type="polyline" />
    <path
       style="fill:none;stroke:#000000;stroke-width:1.5;stroke-linecap:butt;stroke-linejoin:miter;stroke-miterlimit:4;stroke-opacity:1;stroke-dasharray:none;marker-end:url(#Arrow1Mend)"
       d="m 95.023024,1419.449 2.056304,59.5484"
       id="path3813-1"
       inkscape:connector-type="polyline" />
    <g
       id="g4673"
       transform="translate(-103.715,140.2428)">
      <path
         sodipodi:type="arc"
         style="fill:none;stroke:#000000;stroke-width:0;stroke-linecap:butt;stroke-linejoin:miter;stroke-miterlimit:4;stroke-opacity:1;stroke-dasharray:none"
         id="path4675"
         sodipodi:cx="49.415012"
         sodipodi:cy="80.384789"
         sodipodi:rx="25.732241"
         sodipodi:ry="25.732241"
         d="m 75.147253,80.384789 c 0,14.211524 -11.520717,25.732241 -25.732241,25.732241 -14.211524,0 -25.73224,-11.520717 -25.73224,-25.732241 0,-14.211525 11.520716,-25.732241 25.73224,-25.732241 14.211524,0 25.732241,11.520716 25.732241,25.732241 z"
         transform="matrix(1.17686,0,0,1.17686,76.179639,663.75152)" />
      <path
         sodipodi:type="arc"
         style="fill:none;stroke:#000000;stroke-width:2;stroke-linecap:butt;stroke-linejoin:miter;stroke-miterlimit:4;stroke-opacity:1;stroke-dasharray:none;filter:url(#filter3624-8)"
         id="path4677"
         sodipodi:cx="49.415012"
         sodipodi:cy="80.384789"
         sodipodi:rx="25.732241"
         sodipodi:ry="25.732241"
         d="m 75.147253,80.384789 c 0,14.211524 -11.520717,25.732241 -25.732241,25.732241 -14.211524,0 -25.73224,-11.520717 -25.73224,-25.732241 0,-14.211525 11.520716,-25.732241 25.73224,-25.732241 14.211524,0 25.732241,11.520716 25.732241,25.732241 z"
         transform="translate(85.631006,678.84123)" />
      <path
         transform="translate(84.919179,677.96838)"
         d="m 75.147253,80.384789 c 0,14.211524 -11.520717,25.732241 -25.732241,25.732241 -14.211524,0 -25.73224,-11.520717 -25.73224,-25.732241 0,-14.211525 11.520716,-25.732241 25.73224,-25.732241 14.211524,0 25.732241,11.520716 25.732241,25.732241 z"
         sodipodi:ry="25.732241"
         sodipodi:rx="25.732241"
         sodipodi:cy="80.384789"
         sodipodi:cx="49.415012"
         id="path4679"
         style="fill:#ffffff;fill-opacity:1;fill-rule:evenodd;stroke:#000000;stroke-width:2;stroke-linecap:butt;stroke-linejoin:miter;stroke-miterlimit:4;stroke-opacity:1;stroke-dasharray:none"
         sodipodi:type="arc" />
    </g>
    <path
       transform="matrix(1.17686,0,0,1.17686,37.13681,817.28805)"
       d="m 75.147253,80.384789 c 0,14.211524 -11.520717,25.732241 -25.732241,25.732241 -14.211524,0 -25.73224,-11.520717 -25.73224,-25.732241 0,-14.211525 11.520716,-25.732241 25.73224,-25.732241 14.211524,0 25.732241,11.520716 25.732241,25.732241 z"
       sodipodi:ry="25.732241"
       sodipodi:rx="25.732241"
       sodipodi:cy="80.384789"
       sodipodi:cx="49.415012"
       id="path4683"
       style="fill:none;stroke:#000000;stroke-width:0;stroke-linecap:butt;stroke-linejoin:miter;stroke-miterlimit:4;stroke-opacity:1;stroke-dasharray:none"
       sodipodi:type="arc" />
    <path
       transform="translate(46.588177,832.37776)"
       d="m 75.147253,80.384789 c 0,14.211524 -11.520717,25.732241 -25.732241,25.732241 -14.211524,0 -25.73224,-11.520717 -25.73224,-25.732241 0,-14.211525 11.520716,-25.732241 25.73224,-25.732241 14.211524,0 25.732241,11.520716 25.732241,25.732241 z"
       sodipodi:ry="25.732241"
       sodipodi:rx="25.732241"
       sodipodi:cy="80.384789"
       sodipodi:cx="49.415012"
       id="path4685"
       style="fill:none;stroke:#000000;stroke-width:2;stroke-linecap:butt;stroke-linejoin:miter;stroke-miterlimit:4;stroke-opacity:1;stroke-dasharray:none;filter:url(#filter3624-8)"
       sodipodi:type="arc" />
    <path
       sodipodi:type="arc"
       style="fill:url(#radialGradient4936);fill-opacity:1;fill-rule:evenodd;stroke:#000000;stroke-width:2;stroke-linecap:butt;stroke-linejoin:miter;stroke-miterlimit:4;stroke-opacity:1;stroke-dasharray:none"
       id="path4687"
       sodipodi:cx="49.415012"
       sodipodi:cy="80.384789"
       sodipodi:rx="25.732241"
       sodipodi:ry="25.732241"
       d="m 75.147253,80.384789 c 0,14.211524 -11.520717,25.732241 -25.732241,25.732241 -14.211524,0 -25.73224,-11.520717 -25.73224,-25.732241 0,-14.211525 11.520716,-25.732241 25.73224,-25.732241 14.211524,0 25.732241,11.520716 25.732241,25.732241 z"
       transform="translate(45.87635,831.50491)" />
    <path
       style="fill:none;stroke:#000000;stroke-width:1px;stroke-linecap:butt;stroke-linejoin:miter;stroke-opacity:1;marker-end:url(#Arrow1Mend-09)"
       d="m 23.713129,110.0136 42.635727,70.42081"
       id="path4703"
       transform="translate(0,698.03017)" />
  </g>
</svg>
